<svg xmlns="http://www.w3.org/2000/svg" xmlns:xlink="http://www.w3.org/1999/xlink" width="60" height="60" viewBox="0 0 60 60"><defs><path id="a" d="M1068.39 870.17a17.92 17.92 0 0 0 5.47 5.11 14.53 14.53 0 0 0 8.12 1.75c1.34-.06 1.75-.41 1.81-1.75.04-.92.15-1.83.6-2.65.44-.81 1.11-.96 1.89-.46.38.25.71.57 1.02.91.75.83 1.48 1.68 2.27 2.48.98 1 2.15 1.59 3.61 1.47h5.68c.91-.06 1.39-1.18.86-2.2-.37-.71-.85-1.35-1.36-1.96-1.16-1.4-2.53-2.59-3.82-3.85-1.17-1.13-1.24-1.79-.31-3.11 1.03-1.43 2.13-2.8 3.16-4.23.96-1.33 1.95-2.66 2.45-4.25.33-1.02.04-1.47-1-1.65-.18-.03-.37-.03-.55-.03l-6.17-.01c-.76-.01-1.18.32-1.45 1-.36.91-.74 1.82-1.17 2.7a22.35 22.35 0 0 1-3.61 5.55c-.34.36-.72.81-1.29.63-.7-.26-.91-1.43-.9-1.82l-.01-7.13c-.13-1.02-.36-1.47-1.37-1.67h-6.42c-.85 0-1.28.33-1.74.87-.26.31-.34.51.2.61 1.06.2 1.67.89 1.82 1.96.26 1.7.24 3.42.09 5.13-.04.5-.12 1-.32 1.46-.31.74-.81.89-1.47.43a5.88 5.88 0 0 1-1.42-1.56 34.34 34.34 0 0 1-3.77-6.98c-.29-.71-.79-1.14-1.54-1.15-1.85-.03-3.71-.04-5.56 0-1.12.02-1.45.56-.99 1.57a68.74 68.74 0 0 0 7.19 12.83z"/><path id="b" d="M1110 836v60h-60v-60zm-3.71 3.71h-52.58v52.58h52.58z"/></defs><g opacity=".8" transform="translate(-1050 -836)"><use fill="#454545" xlink:href="#a"/></g><g opacity=".8" transform="translate(-1050 -836)"><use fill="#454545" xlink:href="#b"/></g></svg>