<svg xmlns="http://www.w3.org/2000/svg" xmlns:xlink="http://www.w3.org/1999/xlink" width="60" height="60" viewBox="0 0 60 60"><defs><path id="ffbla" d="M1310 836v60h-60v-60zm-3.71 3.71h-52.58v52.58h52.58z"/><path id="ffblb" d="M1299 855.8v19.24c0 5.41-4.42 9.8-9.84 9.8h-19.32a9.82 9.82 0 0 1-9.84-9.8V855.8c0-5.4 4.41-9.8 9.84-9.8h19.32c5.42 0 9.84 4.4 9.84 9.8zm-4.25 0a5.59 5.59 0 0 0-5.59-5.57h-19.32a5.6 5.6 0 0 0-5.6 5.57v19.24a5.58 5.58 0 0 0 5.6 5.57h19.32a5.58 5.58 0 0 0 5.59-5.57z"/><path id="ffblc" d="M1289.38 857.73a2.38 2.38 0 0 1-2.38-2.36 2.38 2.38 0 0 1 4.75 0c0 1.3-1.06 2.36-2.37 2.36z"/><path id="ffbld" d="M1289.09 865a10.04 10.04 0 0 1-20.09 0 10.04 10.04 0 0 1 20.09 0zm-4.25 0a5.8 5.8 0 0 0-11.6 0 5.8 5.8 0 0 0 11.6 0z"/></defs><g><g opacity=".8" transform="translate(-1250 -836)"><use fill="#454545" xlink:href="#ffbla"/></g><g opacity=".8" transform="translate(-1250 -836)"><use fill="#454545" xlink:href="#ffblb"/></g><g opacity=".8" transform="translate(-1250 -836)"><use fill="#454545" xlink:href="#ffblc"/></g><g opacity=".8" transform="translate(-1250 -836)"><use fill="#454545" xlink:href="#ffbld"/></g></g></svg>