<svg xmlns="http://www.w3.org/2000/svg" xmlns:xlink="http://www.w3.org/1999/xlink" width="349" height="62" viewBox="0 0 349 62"><defs><path id="a" d="M831.9 67.52c-.64-.81-.65-3.08-.72-4.13-.14-2.08-.24-5.7-.89-7.55-.46-1.22-.92-1.03-.75-2.34.23-1.43.19-2.16.08-3.59-.08-1.13 0-2.43-1.48-1.95-2.47.81-3.78 3.04-4.53 5.38-1.09 3.55-.59 5.4-.96 8.8-.31 2.8-.38 5.23-3.38 6.37-1.58.52-3.78-.39-5.27-.95-.99-.38-1.97-.79-2.94-1.16-.42-.16-.46-.14-.31-.44.29-.6.45-.91.64-1.57.08-.33.36-1.11-.15-1.2-.99-.19-2.28-.51-3.16-1-.75-.42-1.18-3.25-1.29-4.03-.19-1.32-.17-2.17-.17-3.49l.01-.15.09-.56c.93-5.01 3.71-7.85 8.6-8.8.91-.16 2.25.04 1.07.85l-1.29.84c-2.52 1.59-1.32 2.68-.22 4.58.51.93 1.07 3.04 1.71 3.63 1.17.86 2.81-4.78 2.91-5.53.06-.57.2-1.03.28-1.6.09-.77.45-1.91.58-2.61l.03-.09c.27-.66 1.13-.72 1.79-.78a22.5 22.5 0 0 0 7.63-1.83c.66-.32 1.74-.81.46-1.18-1.37-.41-1.32-.23-1.6-1.69-.25-1.28-1.23-.65-1.74-1.62l-.03-.08c-.39-1.25.78-2.01-.31-3.02-.8-.75-.73-1.07-.53-2.12.1-.54.34-2.26.97-2.51.74-.29 1.07.71 1.3 1.18.23.48 1.35 2.27 1.29 2.49-.13.44-.66-.4-.73-.49-.15-.17-1.37-1.87-1.63-1.15-.73 2.03.77 1.92 1.12 2.62.38.93.09 1.35.28 1.99.38 1.24 1.97.08 2.32 1.83l.01.03c.18 1.39.15 1.45 1.59 1.31 1.28-.13 1.15.61 1.41 1.29.05.12.16.22.29.26.68.2 2.43-.1 2.88-.2.87-.17.92-.61 1.73-.39 2.12.66 4.32.1 6.31-.73.96-.4 1.82-.94 2.72-1.32l.05-.01c.42-.32.97-.89.98-1.7 0-.37-.1-.75-.24-1.1a.5.5 0 0 0-.15-.2 2.77 2.77 0 0 1-.25-.24c-.57-.62-1.12-1.63-1.72-2.36a34.67 34.67 0 0 0-6.29-5.75c-1.14-.84-2.3-1.87-3.76-2.05-1.21-.11-2.71.56-3.68-.1l-.13-.08-.04-.04c-.18-.15-1.06-.96-.98-1.07.13-.2 1.85-.19 1.73-.32-.19-.2-2.44-.76-2.87-.84-3.47-.62-6.57-.28-9.18 2.27l-.73.74c-1.29 1.36-.83-.44-.52-1.18.37-.88.97-1.9-.41-.57a15.27 15.27 0 0 0-3.59 5.75c-.36.94-1.17.69-.93-.76.31-1.89 1.58-4.53 2.63-6.14.35-.53 1.5-2.08-.03-.99-1.5 1.06-2.96 3.09-3.81 4.7a15 15 0 0 0-1.64 4.9c-.12.98-.84.18-1.03-.52l-.07-.32-.01-.04c-.28-1.86.2-4.16.78-5.93.14-.41.14-.88-.31-.26-.96 1.38-1.31 2.5-2.02 3.95-.62 1.26-1.35 1.11-2.66 1.07-.58-.02-1.1-.03-1.68-.01-1.55.09-3.08.36-4.57.8-.49.16-.99.3-1.48.47a34.19 34.19 0 0 0-5.35 2.32c-.17.09-.37.15-.54.17a.37.37 0 0 0-.17.05c-2.39 1.18-5.61 3-6.09 4.34-.75 2.09 1.34 1.71 2.23 1.34.19-.09.37-.15.53-.22l.09-.04c.09-.06.19-.11.32-.17l.04-.02c2.97-1.17 5.85.26 6.91-.1.53-.18 1.44-1.17 2.01-1.57.18-.13 1.73-1.2 1.74-.7-.08.65-1.6 4.19-1.94 5.17-.9 2.62-1.39 7.57-1.22 10.33.14 2.35.48 4.82 1.38 7l.58 1.45c.11.29.24.57.39.84.42.77.75 1.57 1.14 2.35.44.82.9 1.44 1.35 2.2.82 1.56.49 1.97.85 3.44.3 1.26 1.03.75 1.95.41 1.5-.51 1.38-.13 2.57.91a24.97 24.97 0 0 0 7.46 4.7c.44.21.81.41.94.59.09.12.24.19.4.2 1.21.04 3.59.06 6.33-.24.48-.05.55-.71.09-.85a28.54 28.54 0 0 1-4.18-1.71c-1.17-.59-2.29-1.26-3.42-1.91l-.16-.1c-.85-.49-2.88-1.97-3.14-2.86-.24-.78 2.02.53 2.18.61 2.47 1.12 4.38 1.65 6.85.19l.04-.02c2.67-1.91 2.44-6.06 2.4-8.96-.03-2.3.26-4.59.86-6.8.43-1.35 1.86-3.51 3.08-4.2 1.21-.69.92 1.25.91 1.92-.01.72.11 1.99-.47 2.51-.4.35-.67.21-.02.93 1.32 1.43 1.11 1.41 1.34 3.33.24 2.12.39 4.22.62 6.32.09.84.31 3.37.79 3.94.65.79 3.61 2.47 4.65 2.9l.35.15c.13.05.28.04.4-.03l.56-.32c.34-.21.26-.73-.14-.81-1.89-.4-4.07-1.6-4.9-2.65"/><path id="b" d="M838.18 39.79c2.11.66 4.3.09 6.29-.73.96-.4 1.82-.94 2.71-1.32 1.35-.56 1.9.18 2.25 1.41.77 2.76.99 7.3.68 10.15a24.55 24.55 0 0 1-2.77 9.37c-1.42 2.57-6.52 9.01-9.08 10.01-1.9.67-5.86-1.13-7.05-2.64-.64-.8-.65-3.07-.71-4.12-.15-2.07-.25-5.68-.9-7.52-.45-1.22-.91-1.03-.74-2.33.22-1.42.18-2.16.08-3.58-.09-1.13-.01-2.42-1.48-1.94-2.47.81-3.77 3.03-4.52 5.36-1.08 3.54-.59 5.38-.96 8.77-.3 2.79-.37 5.21-3.36 6.35-1.58.52-3.77-.39-5.26-.95-.99-.37-1.96-.79-2.93-1.15-.42-.16-.45-.14-.31-.44.29-.6.45-.91.64-1.57.08-.33.36-1.1-.15-1.2-.99-.18-2.27-.5-3.15-.99-.75-.41-1.17-3.24-1.28-4.01-.19-1.33-.18-2.17-.18-3.49l.01-.15.1-.55c.92-4.99 3.7-7.82 8.57-8.77.91-.16 2.25.04 1.07.85-.59.37-.71.47-1.29.84-2.51 1.58-1.32 2.66-.22 4.55.5.94 1.06 3.04 1.7 3.62 1.17.86 2.8-4.76 2.91-5.5.06-.57.2-1.03.27-1.6.09-.77.46-1.91.59-2.6l.02-.09c.28-.66 1.13-.72 1.78-.77a22.7 22.7 0 0 0 7.62-1.84c.65-.31 1.73-.8.46-1.17-1.38-.4-1.32-.23-1.6-1.68-.25-1.28-1.23-.65-1.73-1.62l-.03-.07c-.39-1.26.77-2.01-.31-3.02-.8-.74-.73-1.06-.54-2.1.1-.55.35-2.26.97-2.51.74-.29 1.07.71 1.3 1.18.23.47 1.34 2.26 1.28 2.48-.12.43-.65-.41-.73-.49-.14-.17-1.36-1.86-1.62-1.15-.72 2.03.77 1.91 1.12 2.61.38.93.08 1.35.28 1.98.37 1.24 1.96.08 2.31 1.83l.01.03c.18 1.38.15 1.45 1.59 1.31 1.27-.13 1.14.61 1.41 1.28.05.12.15.22.28.26.68.2 2.42-.1 2.88-.2.86-.17.9-.61 1.72-.38zm8.94 18.7c0-.01 0-.01 0 0z"/><path id="c" d="M820.45 24.18c.37-.9.97-1.93-.42-.59a15.62 15.62 0 0 0-3.61 5.85c-.36.96-1.18.7-.94-.77.31-1.92 1.59-4.61 2.65-6.25.35-.54 1.51-2.11-.03-1-1.51 1.07-2.98 3.14-3.83 4.78a15.46 15.46 0 0 0-1.65 4.98c-.12.99-.85.18-1.04-.53l-.07-.35c-.29-1.89.19-4.24.78-6.04.14-.42.14-.9-.31-.27-.98 1.41-1.32 2.54-2.04 4.01-.62 1.29-1.36 1.14-2.67 1.1-.59-.02-1.11-.04-1.7-.01-1.56.09-3.1.36-4.59.81-.5.16-1 .3-1.5.47a35.02 35.02 0 0 0-5.37 2.36c-.63.35-1.46.22-.93-.78.46-.84.87-1.33 1.44-2.05.51-.64-.26-.27-.47-.13-1.02.64-1.45 1.01-2.67.41-1.14-.56-2.08-1.69-3.14-2.41l-.15-.11c-2.03-1.33-3.41-2.26-.6-3.84a23.31 23.31 0 0 1 4.28-1.79c1.49-.47 2.64-.81 4.19-1.04 1.86-.28 3.38-.27 5.24-.27 1.68.01 1.93-.52 3.27-1.31a31.31 31.31 0 0 1 11.51-4.12 35.68 35.68 0 0 1 17.07 1.95c.1.04.2.09.31.12 1.32.4 3.73 1.62 4.89 2.43 2.27 1.6 3.3 2.37 5.15 4.49 1.81 2.09 6.62 7.92 6.66 10.6.02 1.11-.77.92-1.37.26-.57-.63-1.13-1.66-1.74-2.41a34.98 34.98 0 0 0-6.32-5.84c-1.15-.86-2.32-1.9-3.79-2.09-1.22-.11-2.73.57-3.7-.1l-.15-.1c-.11-.09-1.09-.99-1.01-1.11.13-.2 1.87-.19 1.75-.32-.2-.21-2.46-.78-2.9-.86-3.48-.63-6.61-.29-9.23 2.31-.25.24-.49.5-.74.76-1.29 1.38-.83-.45-.51-1.2zm-29.07 30.98c-1.14-3.47-1.57-9.68-.79-13.26.14-.62.3-1.22.48-1.83.15-.51-.19-.59-.6-.82-.73-.4-.81-.59 0-.97 3.01-1.2 5.91.26 6.98-.11.52-.18 1.45-1.18 2.02-1.59.18-.13 1.74-1.22 1.75-.71-.08.65-1.61 4.26-1.95 5.26-.91 2.65-1.4 7.68-1.23 10.5a22.4 22.4 0 0 0 1.39 7.11l.58 1.48c.11.29.24.58.39.85.42.78.76 1.6 1.15 2.39.45.84.91 1.46 1.36 2.24.82 1.58.49 2 .85 3.5.31 1.28 1.04.76 1.96.41 1.52-.51 1.4-.13 2.59.93a25.4 25.4 0 0 0 7.5 4.78c.98.46 1.63.89.08 1.14-1.34.16-2.4-.35-3.63-.58-2.13-.39-2.35 1.91-4.32-.46-.66-.79-1.15-1.51-2.01-2.11-.94-.61-2.04-1.04-3.04-1.71l-.49-.33c-5.04-3.78-9.05-10.13-11.02-16.11zm24.43 16.07c-.85-.5-2.89-2.01-3.15-2.91-.24-.8 2.03.54 2.19.62 2.5 1.15 4.42 1.68 6.92.18 2.7-1.93 2.46-6.16 2.43-9.12-.04-2.33.25-4.66.86-6.92.44-1.36 1.87-3.56 3.1-4.27 1.21-.69.93 1.28.92 1.96-.01.73.1 2.03-.48 2.55-.4.36-.67.22-.01.95 1.32 1.45 1.11 1.43 1.34 3.38.25 2.16.39 4.3.62 6.43.09.86.32 3.43.8 4.01.66.8 3.63 2.5 4.67 2.95 2.38 1.01 4.3 1.72 6.91 1.95.76.05 2.4.17 1.37 1.33-1.77 1.84-6.34 2.52-8.82 2.6-1.94.07-3.02.03-5.09-.3-3.6-.59-7.73-1.66-10.98-3.34-1.17-.61-2.3-1.29-3.44-1.95zm32.52-11.62c0-.01 0-.01 0 0z"/><path id="d" d="M1042.7 28h7a.7.7 0 0 1 .57.29l10.02 13.96a.7.7 0 0 0 1.14-.01l9.44-13.93a.7.7 0 0 1 .57-.31h6.49c.39 0 .7.32.7.71v34.31a.7.7 0 0 1-.7.72h-6.6a.7.7 0 0 1-.7-.72V43.2a.7.7 0 0 0-1.28-.42l-8.27 11.83a.74.74 0 0 1-.57.3h-.43a.71.71 0 0 1-.57-.3l-8.23-11.69c-.4-.56-1.27-.27-1.27.42v19.68c0 .4-.32.72-.7.72h-6.61a.7.7 0 0 1-.7-.72V28.71a.7.7 0 0 1 .7-.71"/><path id="e" d="M1081.75 28h20.65c.41 0 .74.32.74.71v6.23c0 .4-.33.72-.74.72h-12.12a.73.73 0 0 0-.74.71v4.85c0 .4.33.72.74.72h10.52c.41 0 .74.32.74.71v6.23c0 .4-.33.72-.74.72h-10.52a.73.73 0 0 0-.74.71v5.06c0 .39.33.71.74.71h12.65c.41 0 .75.32.75.71v6.23c0 .4-.34.72-.75.72h-21.18a.73.73 0 0 1-.75-.72V28.71c0-.39.33-.71.75-.71"/><path id="f" d="M1112.73 36.39a.7.7 0 0 1 .62-.71c.78-.08 1.58-.08 2.23-.08 6.28 0 10.86 3.45 10.86 9.99 0 6.74-4.25 10.54-10.91 10.54-.86 0-1.47 0-2.17-.04a.7.7 0 0 1-.63-.71zM1105 62.93c0 .39.3.71.68.71h.14c3.24 0 7.68.1 9.47.1 12.89 0 19.36-8.21 19.36-18.15 0-9.43-5.45-17.59-18.98-17.59-2.22 0-8.21.15-9.99.15a.7.7 0 0 0-.68.71z"/><path id="g" d="M873.01 44.23h16.47c.4 0 .71-.37.67-.78-.91-8-6.44-12.86-14.64-12.86-2.97 0-5.95.72-8.39 2.48a.67.67 0 0 1-.97-.23l-.46-.85a.7.7 0 0 1 .17-.88c2.52-2.05 6.33-3.11 10.23-3.11 10.09 0 16.82 6.87 16.82 17.72 0 10.35-6.63 18.02-16.96 18.02-4.1 0-7.76-1.16-10.66-3.27a.7.7 0 0 1-.2-.91l.55-1.03a.67.67 0 0 1 .96-.24 16.3 16.3 0 0 0 9.3 2.86c7.97 0 13.54-5.48 14.27-13.58a.7.7 0 0 0-.68-.76h-16.48a.68.68 0 0 1-.67-.69v-1.2c0-.38.3-.69.67-.69"/><path id="h" d="M918.23 62.53c.42.46.1 1.21-.52 1.21h-1.66a.72.72 0 0 1-.53-.23L898.94 45.6a.7.7 0 0 1 .02-.98l16.06-16.41a.72.72 0 0 1 .51-.21h1.39c.63 0 .95.77.5 1.22l-15.14 15.19a.7.7 0 0 0-.02.99zM896.09 28c.39 0 .71.32.71.71v34.31c0 .4-.32.72-.71.72h-1.38a.71.71 0 0 1-.71-.72V28.71c0-.39.32-.71.71-.71z"/><path id="i" d="M948.83 59.43a.7.7 0 0 1-.15.85c-2.43 2.17-6.45 3.46-10.33 3.46-10.28 0-17.35-7.02-17.35-17.87C921 35.86 927.53 28 937.96 28c4.07 0 7.42.96 9.98 2.89a.7.7 0 0 1 .16.93l-.56.88a.69.69 0 0 1-.98.2c-2.34-1.59-5.09-2.31-8.55-2.31-8.41 0-14.14 6.47-14.14 15.28 0 9.16 6.03 15.28 14.68 15.28 3.4 0 6.46-1.09 8.82-2.8a.69.69 0 0 1 1.01.24z"/><path id="j" d="M951.68 28h26.55a.7.7 0 0 1 .68.71v1.23a.7.7 0 0 1-.68.71h-11.25a.7.7 0 0 0-.69.72v31.65c0 .4-.3.72-.68.72h-1.31c-.38 0-.68-.32-.68-.72V31.37a.7.7 0 0 0-.69-.72h-11.25a.7.7 0 0 1-.68-.71v-1.23a.7.7 0 0 1 .68-.71"/><path id="k" d="M983.97 31.44c0-.38.33-.7.74-.71 1.8-.04 4.33-.08 5.79-.08 7.13 0 10.05 3.41 10.05 8.04 0 4.89-3.57 8.3-10.43 8.3-1.91 0-3.62-.08-5.45-.21a.72.72 0 0 1-.7-.71zM981 63.03c0 .39.34.71.76.71h1.45c.42 0 .76-.32.76-.71V50.2c0-.41.37-.74.8-.72 1.92.12 3.9.16 5.46.16 9.4 0 13.45-5.35 13.45-10.9 0-5.29-2.97-10.74-13.45-10.74-1.93 0-6.11.08-8.48.1a.73.73 0 0 0-.75.71z"/><path id="l" d="M1022.44 61.15c-8.2 0-14.56-6.57-14.56-15.28 0-8.81 6.31-15.28 14.56-15.28 8.2 0 14.57 6.47 14.57 15.28 0 8.66-6.07 15.28-14.57 15.28zm0-33.15c-10.03 0-17.44 7.76-17.44 17.87 0 10.4 7.55 17.87 17.44 17.87s17.45-7.62 17.45-17.87c0-10.4-7.56-17.87-17.45-17.87z"/></defs><g transform="translate(-786 -15)"><use fill="#fff" xlink:href="#a"/><use fill="#9ec44d" xlink:href="#b"/><use fill="#325c95" xlink:href="#c"/><use fill="#9ec44d" xlink:href="#d"/><use fill="#9ec44d" xlink:href="#e"/><use fill="#9ec44d" xlink:href="#f"/><g><use fill="#325c95" xlink:href="#g"/></g><g><use fill="#325c95" xlink:href="#h"/></g><g><use fill="#325c95" xlink:href="#i"/></g><g><use fill="#325c95" xlink:href="#j"/></g><g><use fill="#325c95" xlink:href="#k"/></g><g><use fill="#325c95" xlink:href="#l"/></g></g></svg>